<svg width="33" height="32" viewBox="0 0 33 32" fill="none" xmlns="http://www.w3.org/2000/svg">
<path d="M16.7699 4.58691C17.6143 4.6289 18.4154 4.98337 19.016 5.58398C19.6567 6.22468 20.0169 7.09393 20.017 8V9.91699H23.9613L24.1947 9.93066C24.4261 9.95711 24.652 10.0225 24.8627 10.124C25.1438 10.2596 25.3916 10.4563 25.5863 10.7002L30.225 16.499L30.3295 16.6416C30.5585 16.9828 30.6832 17.3853 30.684 17.7988V22.667C30.6839 23.2193 30.4641 23.749 30.0736 24.1396C29.683 24.5303 29.1525 24.7499 28.6 24.75H26.599C26.2571 26.2758 24.896 27.4159 23.267 27.416C21.6377 27.416 20.275 26.276 19.933 24.75H13.266C12.9242 26.2758 11.5629 27.4158 9.93399 27.416C8.30476 27.416 6.94199 26.276 6.60001 24.75H4.60001C4.04767 24.7499 3.51796 24.5302 3.12735 24.1396C2.73665 23.7489 2.517 23.2185 2.517 22.666V8C2.51706 7.09393 2.87728 6.22468 3.51797 5.58398C4.1587 4.94339 5.02795 4.58301 5.93399 4.58301H16.6L16.7699 4.58691ZM9.93399 22.083C8.87553 22.083 8.01713 22.9416 8.017 24C8.01717 25.0584 8.87555 25.916 9.93399 25.916C10.9922 25.9157 11.8498 25.0582 11.85 24C11.8499 22.9418 10.9922 22.0833 9.93399 22.083ZM23.267 22.083C22.2085 22.083 21.3501 22.9416 21.35 24C21.3502 25.0584 22.2086 25.916 23.267 25.916C24.3253 25.9158 25.1828 25.0583 25.183 24C25.1829 22.9417 24.3253 22.0832 23.267 22.083ZM5.93399 6.08301C5.42577 6.08301 4.93794 6.28524 4.57852 6.64453C4.21913 7.00392 4.01706 7.49176 4.017 8V22.666C4.017 22.8207 4.0785 22.9697 4.1879 23.0791C4.2972 23.1883 4.44549 23.2499 4.60001 23.25H6.60098C6.94309 21.724 8.30487 20.583 9.93399 20.583C11.5629 20.5833 12.9241 21.7242 13.266 23.25H18.517V8C18.5169 7.49176 18.3149 7.00392 17.9555 6.64453C17.6409 6.33 17.2282 6.13633 16.7895 6.09277L16.6 6.08301H5.93399ZM20.017 22.9434C20.4622 21.5736 21.7489 20.583 23.267 20.583C24.896 20.5832 26.2571 21.7241 26.599 23.25H28.6C28.7546 23.2499 28.9038 23.1884 29.0131 23.0791C29.1222 22.9698 29.1839 22.8215 29.184 22.667V17.8018L29.1752 17.7031C29.1585 17.6066 29.117 17.5148 29.0551 17.4375V17.4365L24.4145 11.6367C24.36 11.5685 24.29 11.5126 24.2113 11.4746C24.172 11.4557 24.1305 11.4413 24.0883 11.4316L23.9594 11.417H20.017V22.9434Z" fill="white" fill-opacity="0.4"/>
</svg>
