<svg width="33" height="32" viewBox="0 0 33 32" fill="none" xmlns="http://www.w3.org/2000/svg">
<path d="M7.44946 3.17816C9.8286 2.45928 12.3343 2.25674 14.7981 2.58344C17.0503 2.88212 19.2202 3.61863 21.1877 4.74652L21.5676 4.36761L21.5725 4.36176C21.9712 3.97098 22.5084 3.7525 23.0666 3.75238C23.555 3.75248 24.0263 3.92049 24.4036 4.22406L24.5598 4.36176L24.5657 4.36761L28.0315 7.83441L28.0373 7.84027C28.4282 8.23904 28.6477 8.77506 28.6477 9.33344C28.6477 9.8918 28.4282 10.4278 28.0373 10.8266L27.6526 11.2104C28.7811 13.1785 29.5178 15.349 29.8166 17.602C30.1433 20.0657 29.9397 22.5706 29.2209 24.9496C29.1998 25.0197 29.1695 25.0871 29.1301 25.1489C28.9242 25.4715 28.6349 25.7332 28.2932 25.9057C27.9514 26.0782 27.5687 26.1563 27.1868 26.1303C26.8049 26.1042 26.4366 25.9754 26.1213 25.7582C25.8061 25.541 25.5551 25.2426 25.3948 24.895C25.3833 24.8701 25.3724 24.8447 25.3635 24.8188C24.445 22.1288 23.1294 19.5934 21.4631 17.2944C21.1421 17.4794 20.7763 17.5815 20.3997 17.5815C20.261 17.5815 20.1237 17.5678 19.9895 17.5414L9.79125 27.7397C9.11082 28.42 8.18702 28.8022 7.22485 28.8022C6.2628 28.8021 5.33974 28.4199 4.65942 27.7397C3.97916 27.0594 3.59715 26.1363 3.59692 25.1743C3.59692 24.2121 3.97915 23.2883 4.65942 22.6078L14.8586 12.4086C14.8326 12.2751 14.8186 12.1384 14.8186 12.0004C14.8186 11.6241 14.9194 11.2581 15.1038 10.937C12.8054 9.27118 10.2704 7.95599 7.58129 7.03754C7.55558 7.02875 7.5298 7.01862 7.50512 7.00726C7.15697 6.84701 6.85843 6.59525 6.64086 6.27972C6.42337 5.96424 6.2948 5.59562 6.26879 5.21332C6.24288 4.83111 6.32066 4.4488 6.4934 4.10687C6.66628 3.76488 6.928 3.47484 7.25121 3.26898C7.31268 3.22986 7.37973 3.19927 7.44946 3.17816ZM5.79125 23.7397C5.41104 24.1201 5.19653 24.6364 5.19653 25.1743C5.19676 25.7119 5.41106 26.2277 5.79125 26.6078C6.17152 26.988 6.68715 27.2024 7.22485 27.2026C7.76267 27.2026 8.27904 26.9881 8.65942 26.6078L18.6018 16.6664L15.7317 13.7973L5.79125 23.7397ZM22.6536 16.2094C24.4521 18.6599 25.87 21.3694 26.8586 24.2465C26.8988 24.324 26.9575 24.3912 27.0295 24.4409C27.1081 24.4949 27.2001 24.527 27.2952 24.5336C27.3904 24.5401 27.4863 24.5208 27.5715 24.478C27.6305 24.4482 27.6829 24.4065 27.7268 24.3578C28.3485 22.2351 28.5206 20.0056 28.2297 17.812C27.9774 15.9097 27.3814 14.0726 26.4758 12.3871L22.6536 16.2094ZM23.0666 5.35199C22.9298 5.35211 22.7975 5.40516 22.6985 5.49945L16.8508 11.3471C16.8427 11.3559 16.8339 11.3641 16.8254 11.3725L16.5657 11.6323C16.4714 11.7313 16.4182 11.8635 16.4182 12.0004C16.4183 12.1372 16.4716 12.2687 16.5657 12.3676L20.0256 15.8286C20.1252 15.9262 20.2602 15.9808 20.3997 15.9809C20.5391 15.9809 20.6731 15.9261 20.7727 15.8286L26.8948 9.70648C26.9924 9.60681 27.0471 9.47298 27.0471 9.33344C27.0471 9.19391 26.9924 9.06006 26.8948 8.96039V8.95941L23.4338 5.49945H23.4329C23.334 5.40565 23.2032 5.3521 23.0666 5.35199ZM14.5881 4.16937C12.3941 3.87845 10.1633 4.05023 8.04028 4.6723C7.99151 4.71623 7.95097 4.76952 7.92113 4.82855C7.87809 4.91389 7.85807 5.00955 7.86449 5.10492C7.87103 5.20043 7.90391 5.2927 7.95824 5.37152C8.00877 5.44478 8.07732 5.50322 8.15649 5.5434C11.0313 6.53184 13.7389 7.94935 16.1877 9.74652L20.012 5.9223C18.3271 5.01686 16.4898 4.42162 14.5881 4.16937Z" fill="white" fill-opacity="0.4"/>
</svg>
