<svg width="33" height="32" viewBox="0 0 33 32" fill="none" xmlns="http://www.w3.org/2000/svg">
<path d="M14.9363 3.70306C15.6973 3.40011 16.5402 3.38124 17.3113 3.64642L17.4647 3.70306L17.4656 3.70404L28.1297 7.96967H28.1307C28.7636 8.22178 29.3077 8.65758 29.6912 9.22064C30.0747 9.78375 30.2812 10.4495 30.284 11.1308V26.6669C30.2839 27.573 29.9237 28.4423 29.283 29.0829C28.6423 29.7236 27.773 30.0839 26.867 30.0839H5.534C4.62806 30.0839 3.75869 29.7234 3.11798 29.0829C2.47731 28.4423 2.1171 27.573 2.117 26.6669V11.1308L2.12775 10.8759C2.17433 10.2845 2.37416 9.71342 2.70978 9.22064C3.09333 8.65758 3.63641 8.22174 4.26935 7.96967L14.9354 3.70404L14.9363 3.70306ZM16.908 5.09564C16.4532 4.91502 15.9457 4.91468 15.491 5.09564L15.492 5.09662L4.82599 9.36322H4.82404C4.46904 9.50466 4.16415 9.74953 3.94904 10.0654C3.734 10.3812 3.61855 10.7545 3.617 11.1367V26.6669C3.6171 27.1751 3.81916 27.663 4.17853 28.0224C4.53793 28.3816 5.02588 28.5839 5.534 28.5839H7.45001V13.3329C7.45017 12.9189 7.78589 12.5829 8.20001 12.5829H24.2C24.6141 12.5829 24.9499 12.9189 24.95 13.3329V28.5839H26.867C27.3752 28.5839 27.8631 28.3817 28.2225 28.0224C28.5818 27.663 28.7839 27.1751 28.784 26.6669V11.1367L28.7781 10.9941C28.7521 10.6622 28.6392 10.3419 28.451 10.0654C28.2359 9.74954 27.931 9.50466 27.576 9.36322H27.575L16.908 5.09662V5.09564ZM8.95001 24.7499V28.5829H23.45V24.7499H8.95001ZM8.95001 19.4169V23.2499H23.45V19.4169H8.95001ZM8.95001 17.9169H23.45V14.0829H8.95001V17.9169Z" fill="white" fill-opacity="0.4"/>
</svg>
